<mxfile host="Electron" modified="2024-03-25T20:11:49.973Z" agent="Mozilla/5.0 (Windows NT 10.0; Win64; x64) AppleWebKit/537.36 (KHTML, like Gecko) draw.io/22.1.2 Chrome/114.0.5735.289 Electron/25.9.4 Safari/537.36" etag="Dg3iHcGaBi8qVcYgMJsb" version="22.1.2" type="device">
  <diagram name="Page-1" id="zfthlp5pHbSOopFcsggS">
    <mxGraphModel dx="1418" dy="820" grid="1" gridSize="10" guides="1" tooltips="1" connect="1" arrows="1" fold="1" page="1" pageScale="1" pageWidth="850" pageHeight="1100" math="0" shadow="0">
      <root>
        <mxCell id="0" />
        <mxCell id="1" parent="0" />
        <mxCell id="L5MdtJ7hcvX5b3ytrrOp-1" value="customer" style="rounded=0;whiteSpace=wrap;html=1;" vertex="1" parent="1">
          <mxGeometry x="50" y="140" width="120" height="80" as="geometry" />
        </mxCell>
        <mxCell id="L5MdtJ7hcvX5b3ytrrOp-2" value="cust id&amp;nbsp;&lt;br&gt;username&amp;nbsp;&lt;br&gt;password&amp;nbsp;&lt;br&gt;last recent password&amp;nbsp;&lt;br&gt;last login&amp;nbsp;&lt;br&gt;account status&lt;br&gt;address_id&amp;nbsp;" style="text;html=1;strokeColor=none;fillColor=none;align=center;verticalAlign=middle;whiteSpace=wrap;rounded=0;" vertex="1" parent="1">
          <mxGeometry x="70" y="220" width="70" height="200" as="geometry" />
        </mxCell>
        <mxCell id="L5MdtJ7hcvX5b3ytrrOp-3" value="orders" style="whiteSpace=wrap;html=1;aspect=fixed;" vertex="1" parent="1">
          <mxGeometry x="260" y="110" width="160" height="160" as="geometry" />
        </mxCell>
        <mxCell id="L5MdtJ7hcvX5b3ytrrOp-4" value="&lt;h1&gt;&lt;br&gt;&lt;/h1&gt;" style="text;html=1;strokeColor=none;fillColor=none;spacing=5;spacingTop=-20;whiteSpace=wrap;overflow=hidden;rounded=0;" vertex="1" parent="1">
          <mxGeometry x="260" y="310" width="190" height="120" as="geometry" />
        </mxCell>
        <mxCell id="L5MdtJ7hcvX5b3ytrrOp-5" value="order id&amp;nbsp;&lt;br&gt;order quantity&lt;br&gt;amount $" style="text;html=1;strokeColor=none;fillColor=none;align=center;verticalAlign=middle;whiteSpace=wrap;rounded=0;" vertex="1" parent="1">
          <mxGeometry x="290" y="310" width="60" height="30" as="geometry" />
        </mxCell>
        <mxCell id="L5MdtJ7hcvX5b3ytrrOp-6" value="adress" style="rounded=0;whiteSpace=wrap;html=1;" vertex="1" parent="1">
          <mxGeometry x="60" y="450" width="120" height="60" as="geometry" />
        </mxCell>
        <mxCell id="L5MdtJ7hcvX5b3ytrrOp-8" value="address id&amp;nbsp;&lt;br&gt;street&lt;br&gt;city&lt;br&gt;state&lt;br&gt;zipcode" style="text;html=1;strokeColor=none;fillColor=none;align=center;verticalAlign=middle;whiteSpace=wrap;rounded=0;" vertex="1" parent="1">
          <mxGeometry x="90" y="550" width="60" height="30" as="geometry" />
        </mxCell>
        <mxCell id="L5MdtJ7hcvX5b3ytrrOp-9" value="" style="endArrow=classic;startArrow=classic;html=1;rounded=0;entryX=0.908;entryY=1.013;entryDx=0;entryDy=0;entryPerimeter=0;exitX=0.75;exitY=0;exitDx=0;exitDy=0;" edge="1" parent="1" source="L5MdtJ7hcvX5b3ytrrOp-6" target="L5MdtJ7hcvX5b3ytrrOp-1">
          <mxGeometry width="50" height="50" relative="1" as="geometry">
            <mxPoint x="400" y="450" as="sourcePoint" />
            <mxPoint x="450" y="400" as="targetPoint" />
          </mxGeometry>
        </mxCell>
        <mxCell id="L5MdtJ7hcvX5b3ytrrOp-10" value="valid from date&amp;nbsp;&lt;br&gt;until date" style="text;html=1;strokeColor=none;fillColor=none;align=center;verticalAlign=middle;whiteSpace=wrap;rounded=0;" vertex="1" parent="1">
          <mxGeometry x="80" y="620" width="60" height="30" as="geometry" />
        </mxCell>
        <mxCell id="L5MdtJ7hcvX5b3ytrrOp-11" value="paymenmt id" style="text;html=1;strokeColor=none;fillColor=none;align=center;verticalAlign=middle;whiteSpace=wrap;rounded=0;" vertex="1" parent="1">
          <mxGeometry x="300" y="390" width="60" height="30" as="geometry" />
        </mxCell>
        <mxCell id="L5MdtJ7hcvX5b3ytrrOp-12" value="paymebt id" style="text;html=1;strokeColor=none;fillColor=none;align=center;verticalAlign=middle;whiteSpace=wrap;rounded=0;" vertex="1" parent="1">
          <mxGeometry x="70" y="390" width="60" height="30" as="geometry" />
        </mxCell>
        <mxCell id="L5MdtJ7hcvX5b3ytrrOp-13" value="paymnmet details" style="rounded=0;whiteSpace=wrap;html=1;" vertex="1" parent="1">
          <mxGeometry x="510" y="20" width="120" height="60" as="geometry" />
        </mxCell>
        <mxCell id="L5MdtJ7hcvX5b3ytrrOp-14" value="payment id&lt;br&gt;account&amp;nbsp;&lt;br&gt;router number&lt;br&gt;adress id&amp;nbsp;&lt;br&gt;debt or credit&amp;nbsp;&lt;br&gt;" style="text;html=1;strokeColor=none;fillColor=none;align=center;verticalAlign=middle;whiteSpace=wrap;rounded=0;" vertex="1" parent="1">
          <mxGeometry x="570" y="190" width="60" height="30" as="geometry" />
        </mxCell>
        <mxCell id="L5MdtJ7hcvX5b3ytrrOp-15" value="" style="endArrow=classic;startArrow=classic;html=1;rounded=0;exitX=1.025;exitY=0.617;exitDx=0;exitDy=0;exitPerimeter=0;entryX=1;entryY=0.75;entryDx=0;entryDy=0;" edge="1" parent="1" source="L5MdtJ7hcvX5b3ytrrOp-6" target="L5MdtJ7hcvX5b3ytrrOp-13">
          <mxGeometry width="50" height="50" relative="1" as="geometry">
            <mxPoint x="400" y="450" as="sourcePoint" />
            <mxPoint x="450" y="400" as="targetPoint" />
          </mxGeometry>
        </mxCell>
        <mxCell id="L5MdtJ7hcvX5b3ytrrOp-17" value="" style="endArrow=classic;startArrow=classic;html=1;rounded=0;entryX=0;entryY=0.5;entryDx=0;entryDy=0;exitX=1.019;exitY=0.4;exitDx=0;exitDy=0;exitPerimeter=0;" edge="1" parent="1" source="L5MdtJ7hcvX5b3ytrrOp-3" target="L5MdtJ7hcvX5b3ytrrOp-13">
          <mxGeometry width="50" height="50" relative="1" as="geometry">
            <mxPoint x="400" y="450" as="sourcePoint" />
            <mxPoint x="450" y="400" as="targetPoint" />
          </mxGeometry>
        </mxCell>
        <mxCell id="L5MdtJ7hcvX5b3ytrrOp-18" value="" style="endArrow=classic;startArrow=classic;html=1;rounded=0;entryX=-0.012;entryY=0.456;entryDx=0;entryDy=0;entryPerimeter=0;" edge="1" parent="1" source="L5MdtJ7hcvX5b3ytrrOp-1" target="L5MdtJ7hcvX5b3ytrrOp-3">
          <mxGeometry width="50" height="50" relative="1" as="geometry">
            <mxPoint x="400" y="450" as="sourcePoint" />
            <mxPoint x="450" y="400" as="targetPoint" />
          </mxGeometry>
        </mxCell>
        <mxCell id="L5MdtJ7hcvX5b3ytrrOp-19" value="cost id" style="text;html=1;strokeColor=none;fillColor=none;align=center;verticalAlign=middle;whiteSpace=wrap;rounded=0;" vertex="1" parent="1">
          <mxGeometry x="300" y="430" width="60" height="30" as="geometry" />
        </mxCell>
        <mxCell id="L5MdtJ7hcvX5b3ytrrOp-22" value="" style="endArrow=classic;startArrow=classic;html=1;rounded=0;entryX=0;entryY=0;entryDx=0;entryDy=0;exitX=0;exitY=0;exitDx=0;exitDy=0;" edge="1" parent="1" source="L5MdtJ7hcvX5b3ytrrOp-1" target="L5MdtJ7hcvX5b3ytrrOp-13">
          <mxGeometry width="50" height="50" relative="1" as="geometry">
            <mxPoint x="400" y="450" as="sourcePoint" />
            <mxPoint x="450" y="400" as="targetPoint" />
          </mxGeometry>
        </mxCell>
        <mxCell id="L5MdtJ7hcvX5b3ytrrOp-23" value="&lt;h1&gt;ACID&lt;/h1&gt;" style="text;html=1;strokeColor=none;fillColor=none;spacing=5;spacingTop=-20;whiteSpace=wrap;overflow=hidden;rounded=0;" vertex="1" parent="1">
          <mxGeometry x="330" y="530" width="190" height="120" as="geometry" />
        </mxCell>
        <mxCell id="L5MdtJ7hcvX5b3ytrrOp-24" value="&lt;h1&gt;OLTP vs OLAP&lt;/h1&gt;" style="text;html=1;strokeColor=none;fillColor=none;spacing=5;spacingTop=-20;whiteSpace=wrap;overflow=hidden;rounded=0;" vertex="1" parent="1">
          <mxGeometry x="320" y="600" width="190" height="120" as="geometry" />
        </mxCell>
        <mxCell id="L5MdtJ7hcvX5b3ytrrOp-25" value="Oracle&amp;nbsp;&lt;br&gt;DB2&amp;nbsp;&lt;br&gt;MY SQL SERVER&amp;nbsp;&lt;br&gt;MYSQL&amp;nbsp;&lt;br&gt;POSTGRES SQL&amp;nbsp;&lt;br&gt;" style="text;html=1;strokeColor=none;fillColor=none;align=center;verticalAlign=middle;whiteSpace=wrap;rounded=0;" vertex="1" parent="1">
          <mxGeometry x="160" y="790" width="60" height="30" as="geometry" />
        </mxCell>
        <mxCell id="L5MdtJ7hcvX5b3ytrrOp-26" value="ORACLE&amp;nbsp;&lt;br&gt;TERADATA&amp;nbsp;&lt;br&gt;BIGQUERY&amp;nbsp;&lt;br&gt;DATABRICKS&lt;br&gt;REDSHIFT&lt;br&gt;SNOWFLAKE&lt;br&gt;" style="rounded=1;whiteSpace=wrap;html=1;" vertex="1" parent="1">
          <mxGeometry x="370" y="760" width="120" height="60" as="geometry" />
        </mxCell>
        <mxCell id="L5MdtJ7hcvX5b3ytrrOp-27" value="" style="endArrow=classic;startArrow=classic;html=1;rounded=0;entryX=1;entryY=0.5;entryDx=0;entryDy=0;" edge="1" parent="1" target="L5MdtJ7hcvX5b3ytrrOp-24">
          <mxGeometry width="50" height="50" relative="1" as="geometry">
            <mxPoint x="490" y="750" as="sourcePoint" />
            <mxPoint x="450" y="840" as="targetPoint" />
          </mxGeometry>
        </mxCell>
        <mxCell id="L5MdtJ7hcvX5b3ytrrOp-28" value="" style="endArrow=classic;startArrow=classic;html=1;rounded=0;entryX=-0.016;entryY=0.2;entryDx=0;entryDy=0;entryPerimeter=0;" edge="1" parent="1" target="L5MdtJ7hcvX5b3ytrrOp-24">
          <mxGeometry width="50" height="50" relative="1" as="geometry">
            <mxPoint x="190" y="750" as="sourcePoint" />
            <mxPoint x="450" y="840" as="targetPoint" />
          </mxGeometry>
        </mxCell>
      </root>
    </mxGraphModel>
  </diagram>
</mxfile>
